<svg width="370" height="414" viewBox="0 0 370 414" fill="none" xmlns="http://www.w3.org/2000/svg">
<g clip-path="url(#clip0_1_494)">
<path d="M326.082 1289.1C306.587 1274.85 295.089 1249.86 286.841 1202.87C277.843 1149.88 261.847 1111.39 247.35 1107.89C244.101 1106.89 211.109 1106.64 173.868 1107.14C122.38 1107.64 105.384 1108.64 102.384 1111.14C100.135 1113.14 96.6355 1120.39 94.1361 1127.38C88.3875 1145.63 73.141 1181.62 68.1422 1189.12C65.8927 1192.62 62.1436 1198.87 60.1441 1202.87C49.1466 1224.11 32.4005 1250.86 25.1522 1258.6C20.6533 1263.1 12.1552 1269.85 6.15665 1273.35C-3.59108 1279.1 -6.34044 1279.6 -26.3358 1278.6C-43.5817 1277.6 -50.8301 1276.1 -61.0777 1270.85C-72.575 1264.85 -75.0744 1262.35 -83.3225 1245.36L-92.5703 1226.36L-89.571 1198.37C-87.8214 1182.87 -84.3222 1157.88 -81.5729 1142.88C-66.0765 1053.9 -65.3267 1043.65 -61.8275 821.706C-60.3278 709.232 -59.0781 677.489 -56.0788 665.492C-53.8294 657.244 -50.3302 639.748 -48.0807 626.751C-34.3339 545.02 -21.8368 499.781 -0.591774 453.042C8.65607 432.297 29.6512 368.312 40.6486 325.572C68.3921 219.596 65.8927 235.842 67.6423 158.111L69.3919 88.1269L57.6446 76.8795C48.1469 67.6317 45.6474 63.3827 44.3977 53.8849C41.1485 32.3899 54.1455 19.3929 78.6397 19.3929C89.8871 19.3929 90.8869 19.8928 95.6358 29.3906C101.384 40.638 105.633 41.6377 114.881 34.3894C118.38 31.6401 130.378 26.3913 141.625 22.6422C158.621 17.1434 167.619 15.8937 198.112 14.894C234.353 13.8942 234.603 13.8942 250.6 21.3925C259.598 25.3915 269.595 31.6401 272.844 35.1392C277.593 40.388 279.593 41.1378 282.342 39.1383C284.092 37.6387 285.591 34.1395 285.591 31.89C285.591 23.6419 297.339 16.8935 311.835 16.8935C326.832 16.8935 331.081 20.1427 335.58 35.8891C340.329 51.3855 337.329 70.631 327.082 94.8753C315.334 122.869 313.085 136.616 313.085 183.855C313.085 225.595 316.834 248.589 330.581 290.58C334.58 303.077 340.829 328.821 344.078 348.066C347.577 367.312 353.076 395.305 356.575 410.052C360.074 424.798 363.573 446.293 364.323 457.541C365.323 468.788 368.322 487.534 371.072 499.281C380.069 538.272 391.817 611.505 394.316 645.497C395.066 657.994 398.315 690.986 401.314 719.23C406.063 766.219 406.563 781.965 405.813 907.936L405.314 1045.4L416.561 1115.39C436.556 1238.86 437.056 1248.11 424.559 1264.6C408.063 1286.1 383.319 1296.59 349.327 1296.59C338.829 1296.59 334.33 1295.1 326.082 1289.1ZM130.128 770.968C133.377 767.968 139.126 759.97 142.625 752.972C149.123 740.725 149.373 739.475 149.373 695.485C149.373 645.247 151.873 656.994 123.379 573.014C106.133 522.526 92.6365 477.036 86.8878 449.793C81.639 424.298 74.3907 411.302 69.6418 419.05C68.892 420.049 71.6414 435.046 75.8904 452.042C88.6374 504.53 97.6353 533.273 131.377 630.5C135.626 642.748 136.626 653.245 137.626 689.737C138.626 738.225 136.376 750.472 124.129 761.97C119.13 766.719 116.381 767.219 105.633 765.969C58.1445 760.22 33.6502 721.479 0.40799 598.258C-2.34137 588.76 -4.3409 574.513 -4.3409 567.015C-4.3409 551.269 -7.09026 545.27 -12.8389 547.52C-18.3376 549.769 -18.0877 573.014 -12.0891 595.509C-2.84125 629.751 13.6549 682.488 19.9034 696.235C41.3984 744.974 67.3924 770.968 99.8848 776.716C115.131 779.216 122.879 777.716 130.128 770.968ZM282.092 767.219C311.085 748.473 338.829 702.484 361.574 635.999C371.071 608.006 372.821 600.757 370.322 597.758C368.572 595.509 366.323 595.009 365.073 596.258C363.823 597.508 357.325 614.004 350.826 633.25C332.58 686.237 311.585 724.728 287.841 749.223C274.094 763.219 263.597 767.468 246.601 765.469C225.605 762.72 224.606 760.72 226.355 719.98C227.355 692.486 229.854 675.99 237.853 639.248C248.6 590.76 264.096 533.023 281.092 477.536C286.591 459.54 290.59 442.794 290.09 440.295C288.841 433.546 283.342 433.296 280.843 439.795C272.345 462.04 237.353 588.26 228.105 631.75C216.857 682.488 215.608 692.986 215.608 726.478C215.608 758.97 215.858 761.22 221.356 766.219C229.355 773.717 237.353 776.466 253.349 776.466C265.346 776.716 269.345 775.467 282.092 767.219ZM206.36 153.862C215.858 148.863 207.11 135.866 192.113 132.866C180.366 130.867 177.617 132.117 171.868 143.114C166.869 152.112 166.869 152.112 171.868 155.861C177.117 159.86 197.362 158.61 206.36 153.862ZM261.847 130.617C265.346 127.368 268.096 123.119 268.096 121.619C268.096 116.37 257.598 106.873 251.599 106.873C240.352 106.873 234.603 123.369 242.851 131.617C249.6 138.365 254.349 138.115 261.847 130.617ZM143.625 122.619C149.873 116.87 149.373 106.373 142.125 99.6242C137.126 94.8753 135.127 94.3754 130.878 96.6249C127.878 98.3745 125.629 99.8741 125.629 100.124C125.629 100.374 124.629 104.123 123.379 108.122C118.88 124.118 131.627 133.366 143.625 122.619Z" fill="white"/>
<path d="M1.41533 448.042C3.16492 441.794 13.6625 413.55 14.9122 412.051C15.4121 411.551 16.1619 411.551 16.9117 412.301C18.9112 414.05 6.91404 446.793 2.91498 450.292C0.665502 452.291 0.41556 451.792 1.41533 448.042Z" fill="white"/>
<path d="M331.838 304.076C329.089 296.077 320.591 271.083 320.591 270.084C320.591 269.834 321.591 269.334 322.59 269.334C325.09 269.334 336.587 304.326 334.588 306.075C333.838 306.825 332.588 306.075 331.838 304.076Z" fill="white"/>
<path d="M169.125 158.36C166.626 156.36 165.126 153.861 166.376 152.861C167.376 151.861 169.625 152.361 171.125 153.861C172.874 155.611 178.373 156.86 183.872 156.86C189.621 156.86 192.87 157.86 191.87 159.36C189.621 163.109 174.874 162.359 169.125 158.36Z" fill="white"/>
<path d="M240.352 134.116C236.103 129.867 235.354 126.868 236.603 119.87C237.353 115.121 239.103 109.872 240.602 108.372C242.602 106.373 242.852 108.622 241.602 116.121C239.603 129.118 243.102 134.366 253.599 134.366C257.848 134.366 260.348 135.366 259.348 136.866C256.599 141.115 245.851 139.615 240.352 134.116Z" fill="white"/>
<path d="M126.64 129.368C120.391 126.868 116.642 114.871 120.391 111.122C122.391 109.122 123.141 110.122 123.141 114.621C123.141 122.119 127.39 126.868 133.888 126.868C136.388 126.868 137.637 128.118 136.887 129.368C135.138 132.367 133.638 132.367 126.64 129.368Z" fill="white"/>
<path d="M43.1504 40.8878C43.1504 34.3893 47.8993 26.8911 51.8983 26.8911C53.8979 26.8911 55.6475 25.8913 55.6475 24.6416C55.6475 22.3921 67.8946 18.3931 69.8942 20.1427C70.394 20.8925 66.6449 23.3919 61.3961 25.8913C56.1474 28.6407 50.6486 33.1396 49.149 36.3889C45.1499 44.387 43.1504 45.8866 43.1504 40.8878Z" fill="white"/>
<path d="M168.625 156.36C163.876 151.611 165.125 146.112 172.624 137.114C181.995 129.92 188.554 131.232 193.145 131.232C203.64 131.232 214.364 141.363 212.364 149.861C211.365 153.61 208.365 156.86 205.116 157.859C195.118 160.359 171.874 159.609 168.625 156.36Z" fill="black"/>
<path d="M248.6 137.363C245.601 136.863 241.352 133.864 239.352 130.864C236.103 125.866 236.103 123.616 238.603 115.368C241.352 107.12 243.101 105.62 249.85 104.87C261.097 103.871 271.845 114.118 269.345 123.866C266.346 135.613 260.847 139.362 248.6 137.363Z" fill="black"/>
<path d="M123.634 126.366C118.135 120.867 120.135 104.871 126.883 98.1222C132.472 92.5337 141.329 95.1567 146.576 100.404C159.323 110.402 150.377 129.365 134.631 129.365C130.382 129.365 125.383 128.115 123.634 126.366Z" fill="black"/>
<path d="M351.198 1310.94C349.948 1310.44 343.45 1309.44 336.951 1308.44C327.704 1307.19 322.455 1304.45 312.957 1295.95C293.212 1277.95 282.464 1253.96 273.966 1208.47C267.468 1173.48 257.22 1138.23 251.471 1130.99L245.973 1124.24L178.988 1125.99L112.004 1127.99L80.5112 1191.97C52.5178 1248.46 47.269 1257.71 34.7719 1269.95C14.2767 1290.45 6.5285 1293.45 -24.2143 1293.2C-47.4589 1293.2 -50.9581 1292.45 -65.4547 1285.2C-85.7 1275.2 -93.6981 1266.7 -100.197 1248.21C-107.695 1227.21 -108.945 1208.47 -104.196 1186.72C-101.946 1176.73 -99.6967 1164.48 -98.9469 1159.73C-98.1971 1154.98 -95.9476 1141.48 -93.9481 1129.74C-91.6986 1117.99 -87.1996 1086.5 -83.7004 1059.25C-77.7018 1011.76 -77.4519 1005.27 -77.4519 864.298C-77.202 695.838 -78.4517 709.584 -50.7081 564.868C-44.7095 533.126 -25.714 473.639 -14.7165 451.895C-8.96788 440.647 10.7775 383.66 19.0256 354.167C49.7684 244.443 55.0172 213.95 55.0172 134.968V93.4782L45.0195 83.7305C39.5208 78.2317 33.7721 69.9837 32.5224 64.9848C23.0247 30.7428 40.7705 7.49825 76.7621 7.49825C91.5087 7.49825 93.5082 8.24807 100.507 15.2464C107.755 22.4947 108.505 22.4947 116.003 19.2455C141.747 7.24831 176.989 0.249942 210.731 0C228.477 0 251.721 6.24854 266.968 15.2464C274.466 19.4954 275.716 19.7454 279.215 16.2462C290.462 4.74889 313.707 -0.249942 327.704 5.74866C334.452 8.49802 338.451 12.747 343.45 22.7447C354.447 45.2394 351.948 84.4803 338.701 91.9785C334.202 94.228 333.452 97.4772 328.703 132.469C323.954 166.961 323.954 212.45 328.703 235.195C330.953 245.193 336.951 268.187 342.2 286.183C347.699 304.429 354.447 333.672 357.197 351.418C360.196 369.164 364.195 389.409 366.195 396.158C370.444 411.654 376.442 447.895 378.692 471.14C379.441 480.888 381.941 494.884 383.94 502.383C387.69 515.38 393.938 548.872 401.436 596.111C403.186 608.608 405.935 634.352 407.435 653.597C408.935 672.843 412.434 710.084 414.933 736.078C419.182 777.069 419.932 802.063 419.932 920.285V1057L431.179 1122.74C438.928 1167.23 443.177 1199.47 444.176 1222.71L445.676 1257.21L438.678 1267.2C422.931 1289.95 403.436 1302.45 374.943 1308.44C356.697 1312.19 355.447 1312.44 351.198 1310.94ZM393.688 1286.2C401.936 1282.2 411.934 1274.2 418.682 1266.45C428.43 1255.21 429.93 1251.96 429.93 1242.21C429.93 1221.71 424.431 1179.22 413.933 1119.74L403.686 1061L404.436 928.533C405.185 809.561 404.686 790.815 400.187 744.826C397.437 716.583 393.938 677.842 392.438 658.596C389.189 610.358 382.441 566.618 370.943 517.379C367.694 502.883 363.945 479.888 362.445 466.141C361.196 452.394 356.197 422.651 351.448 399.907C346.699 377.162 340.95 348.669 338.701 336.172C336.452 323.924 330.703 301.93 326.204 287.183C313.707 247.692 309.958 223.948 309.958 186.207C309.958 139.967 313.457 118.722 325.204 91.4786C336.452 64.9848 337.951 47.9888 329.953 30.7428C325.204 20.2453 324.954 19.9953 312.957 19.9953C299.21 19.9953 287.463 26.9937 287.463 34.9918C287.463 37.7412 285.213 40.9904 282.714 42.4901C278.715 44.4896 275.716 43.2399 266.218 34.9918C259.969 29.4931 251.721 24.2443 247.972 23.4945C244.223 22.4947 239.724 20.7452 238.224 19.4954C236.225 17.9958 220.229 17.4959 198.234 18.2457C158.493 19.4954 139.747 23.7445 118.252 36.2415C103.756 44.9895 98.757 44.2397 93.2583 33.2422C89.2592 24.7442 87.5096 23.7445 78.2618 22.9946C65.5147 21.9949 50.5182 28.4933 47.0191 36.4915C45.5194 39.7407 45.0195 46.989 46.0193 53.4875C47.5189 62.7354 49.7684 66.4845 59.2662 74.9825L70.7635 84.9802L70.2636 134.469C69.5138 220.449 67.5143 233.446 39.7707 337.421C28.5234 379.411 13.5269 424.651 -0.219924 457.393C-21.7149 509.381 -29.963 536.625 -38.9609 587.363C-43.9597 614.107 -49.4584 644.1 -51.458 653.597C-60.7058 697.337 -61.9555 723.581 -62.2055 872.296C-62.2055 987.27 -62.9553 1023.76 -65.9546 1043.51C-67.9541 1057.25 -70.2036 1075.75 -71.2034 1084.75C-72.2031 1093.74 -75.4524 1116.24 -78.7016 1134.74C-88.1994 1188.97 -91.1987 1220.47 -87.9494 1231.46C-78.9515 1261.71 -57.7065 1277.2 -25.714 1277.2C5.52873 1277.2 19.0256 1266.45 46.2692 1220.97C66.2646 1187.47 80.0114 1159.23 88.7593 1133.24C92.5084 1122.49 97.0074 1112.24 99.0069 1110.74C103.256 1107.49 246.722 1104.24 252.471 1107.24C262.969 1112.99 279.215 1148.73 283.964 1177.23C295.211 1244.71 303.959 1267.2 325.454 1285.95L336.202 1295.2L357.946 1293.95C374.943 1293.2 382.941 1291.45 393.688 1286.2Z" fill="black"/>
</g>
<defs>
<clipPath id="clip0_1_494">
<rect width="370" height="414" fill="white"/>
</clipPath>
</defs>
</svg>
