<svg width="1440" height="759" viewBox="0 0 1440 759" fill="none" xmlns="http://www.w3.org/2000/svg">
<path d="M1016.97 699.347C1007.24 700.665 997.991 700.78 988.757 700.145C986.266 699.973 983.63 699.765 983.438 696.284C983.239 692.651 986.048 692.045 988.399 691.346C1006.59 685.94 1025.12 683.334 1043.53 679.709C1082.94 671.949 1120.95 657.552 1158.93 643.016C1186.58 632.431 1214 621.117 1239.87 605.179C1254.54 596.146 1268.42 585.785 1281.14 573.458C1282.29 572.342 1283.41 571.163 1284.63 570.16C1286.07 568.977 1287.7 568.151 1289.2 569.684C1290.77 571.296 1290.67 573.354 1289.49 575.325C1288.55 576.908 1287.44 578.384 1286.32 579.834C1269.72 601.458 1249.11 616.8 1226.4 628.627C1191.14 646.998 1154.24 659.709 1117.47 672.759C1084.61 684.422 1051.34 693.917 1016.97 699.347Z" fill="black"/>
<path d="M106.111 592.919C76.6773 573.149 50.6655 550.94 30.2282 523.456C29.3257 522.243 28.3542 521.064 27.5598 519.793C26.3238 517.816 25.2053 515.517 27.3799 513.825C29.9088 511.858 32.2644 513.406 34.1585 515.337C40.938 522.25 47.4878 529.364 54.4434 536.119C94.3102 574.834 141.908 603.483 191.824 629.012C233.908 650.536 276.582 670.903 321.296 687.072C363.175 702.217 405.99 713.358 450.565 716.919C451.603 717.002 452.651 717.081 453.673 717.278C457.419 717.999 460.091 719.724 459.689 723.693C459.305 727.487 456.21 728.151 452.895 727.978C424.447 726.493 396.237 722.942 368.792 714.888C278.169 688.294 195.431 645.846 115.036 598.764C112.134 597.064 109.403 595.103 106.111 592.919Z" fill="black"/>
<path d="M716.581 694.146C755.967 689.614 793.784 681.84 830.597 670.26C831.811 669.878 833.05 669.545 834.234 669.098C837.184 667.982 840.467 666.611 838.824 663.149C837.341 660.023 833.907 661.286 831.321 662.006C810.147 667.906 788.683 672.768 766.813 676.052C726.311 682.135 685.626 684.574 644.471 682.995C590.406 680.92 538.477 670.345 487.463 655.056C480.161 652.867 472.52 651.57 465.012 649.945C462.31 649.361 459.001 648.257 457.721 651.575C456.655 654.338 459.619 655.536 461.714 656.8C480.711 668.269 501.683 675.874 523.576 681.498C556.401 689.929 590.057 693.592 624.063 695.781C654.782 697.759 685.323 697.023 716.581 694.146Z" fill="black"/>
<path d="M1405.5 272.704C1422.11 303.085 1428.21 334.454 1425.55 367.301C1424.22 383.738 1421.65 399.984 1418.64 416.22C1418.23 418.431 1416.14 421.51 1420 422.526C1423.78 423.523 1424.43 420.116 1425.42 418.035C1437.71 392.114 1442.26 365.379 1438.96 337.475C1433.81 294.015 1414.48 255.67 1381.87 221.941C1369.47 209.115 1355.13 197.897 1338.94 188.437C1337.24 187.445 1335.41 186.495 1333.47 185.928C1331.02 185.21 1328.83 185.878 1327.42 187.839C1326.12 189.637 1326.71 191.284 1328.35 192.599C1331.93 195.48 1335.59 198.299 1339.31 201.061C1366.58 221.335 1389.65 244.351 1405.5 272.704Z" fill="black"/>
<path d="M180.795 417.712C195.892 437.04 211.953 454.683 227.31 472.917C241.587 489.868 259.797 492.504 280.207 490.917C306.746 488.853 333.339 487.813 359.987 487.526C376.261 487.35 390.357 492.229 403.675 500.74C443.628 526.271 484.918 549.537 526.133 572.928C542.381 582.15 559.747 586.629 578.502 586.558C637.99 586.332 697.478 586.343 756.965 586.366C785.073 586.378 809.04 574.475 832.518 560.825C853.682 548.52 874.747 536.029 894.732 521.904C920.295 503.835 948.253 500.658 978.732 503.623C1010.95 506.758 1043.2 512.2 1075.86 508.586C1086.05 507.457 1094.83 503.618 1103.05 497.672C1153.48 461.158 1203.98 424.735 1254.49 388.336C1261.53 383.267 1268.51 378.044 1275.98 373.679C1294.54 362.834 1301.44 346.28 1299.3 325.822C1297.29 306.645 1297.99 287.458 1297.44 268.277C1297.1 256.519 1296.54 244.767 1296.24 233.009C1296.15 229.091 1295.18 225.708 1292.28 222.972C1253.99 186.85 1217.87 148.399 1176.78 115.287C1159.24 101.161 1139.36 91.0462 1118.92 82.0385C1069.9 60.4308 1020.61 39.4064 971.706 17.5385C944.874 5.54124 916.875 0.330261 887.784 0.284871C817.454 0.175081 747.111 -0.47253 676.798 0.652252C631.57 1.37584 586.302 2.49245 541.14 1.30565C499.925 0.222572 461.588 9.12461 423.436 23.2579C374.088 41.539 324.908 60.382 274.718 76.3067C255.188 82.5034 241.081 95.3382 228.468 110.654C202.869 141.739 177.954 173.455 151.04 203.366C132.274 224.221 128.686 247.922 129.944 273.989C130.896 293.739 133.296 313.403 131.824 333.297C130.491 351.304 135.837 367.458 148.328 381.058C159.217 392.914 169.71 405.134 180.795 417.712Z" fill="white"/>
<path d="M180.795 417.712C195.892 437.04 211.953 454.683 227.31 472.917C241.587 489.868 259.797 492.504 280.207 490.917C306.746 488.853 333.339 487.813 359.987 487.526C376.261 487.35 390.357 492.229 403.675 500.74C443.628 526.271 484.918 549.537 526.133 572.928C542.381 582.15 559.747 586.629 578.502 586.558C637.99 586.332 697.478 586.343 756.965 586.366C785.073 586.378 809.04 574.475 832.518 560.825C853.682 548.52 874.747 536.029 894.732 521.904C920.295 503.835 948.253 500.658 978.732 503.623C1010.95 506.758 1043.2 512.2 1075.86 508.586C1086.05 507.457 1094.83 503.618 1103.05 497.672C1153.48 461.158 1203.98 424.735 1254.49 388.336C1261.53 383.267 1268.51 378.044 1275.98 373.679C1294.54 362.834 1301.44 346.28 1299.3 325.822C1297.29 306.645 1297.99 287.458 1297.44 268.277C1297.1 256.519 1296.54 244.767 1296.24 233.009C1296.15 229.091 1295.18 225.708 1292.28 222.972C1253.99 186.85 1217.87 148.399 1176.78 115.287C1159.24 101.161 1139.36 91.0462 1118.92 82.0385C1069.9 60.4308 1020.61 39.4064 971.706 17.5385C944.874 5.54124 916.875 0.330261 887.784 0.284871C817.454 0.175081 747.111 -0.47253 676.798 0.652252C631.57 1.37584 586.302 2.49245 541.14 1.30565C499.925 0.222572 461.588 9.12461 423.436 23.2579C374.088 41.539 324.908 60.382 274.718 76.3067C255.188 82.5034 241.081 95.3382 228.468 110.654C202.869 141.739 177.954 173.455 151.04 203.366C132.274 224.221 128.686 247.922 129.944 273.989C130.896 293.739 133.296 313.403 131.824 333.297C130.491 351.304 135.837 367.458 148.328 381.058C159.217 392.914 169.71 405.134 180.795 417.712ZM820.465 17.6366C832.235 17.4306 844.09 18.0617 855.76 16.8717C902.952 12.0598 947.567 19.9096 989.795 41.8022C1025.83 60.4867 1062.97 76.7508 1100.89 91.3033C1122.3 99.5176 1143.21 109.129 1161.22 123.744C1201.71 156.595 1238.22 193.71 1275.01 230.527C1280.42 235.95 1278.56 240.111 1273.61 244.528C1219.8 292.542 1159.43 331.668 1100.12 372.18C1089.86 379.181 1077.81 382.864 1065.05 383.101C1036.23 383.636 1007.44 382.309 978.758 379.847C946.446 377.074 916.304 380.169 888.534 399.906C865.594 416.21 843.16 433.367 818.955 447.914C800.339 459.101 780.608 467.536 758.804 467.9C701.826 468.852 644.958 472.933 587.924 472.751C557.385 472.653 529.814 465.099 504.465 448.736C481.83 434.123 459.668 418.774 436.941 404.309C415.58 390.713 392.291 383.618 366.572 384.364C343.975 385.019 321.324 383.832 298.727 384.486C266.144 385.429 240.814 372.734 220.72 347.306C198.038 318.603 177.931 288.005 155.226 259.389C146.19 248 147.503 238.216 153.672 227.339C156.409 222.515 159.475 217.68 163.272 213.687C186.816 188.931 206.899 161.375 228.018 134.646C244.49 113.8 264.811 98.8337 290.549 90.0719C343.586 72.0165 396.099 52.413 448.746 33.2221C468.327 26.0845 488.07 19.8363 509.125 19.6831C612.284 18.932 715.445 18.3082 820.465 17.6366ZM707.851 480.839C728.56 480.288 749.334 480.853 769.864 477.246C776.039 476.161 775.886 480.204 776.382 484.522C778.97 507.047 777.737 529.648 778.046 552.216C778.253 567.295 777.931 567.556 762.89 568.458C761.963 568.513 761.034 568.543 760.105 568.543C697.881 568.581 635.657 568.663 573.433 568.564C568.227 568.556 563.007 567.438 557.823 566.643C552.164 565.775 550.224 562.266 550.726 556.703C552.727 534.519 554.605 512.313 554.118 490.014C553.98 483.666 556.341 482.186 562.418 482.66C610.356 486.406 658.248 484.144 707.851 480.839ZM1085.87 410.456C1082.15 400.629 1085.53 394.72 1095.6 391.991C1098.51 391.205 1101.17 389.295 1103.75 387.616C1154.15 354.891 1201.46 317.972 1248.47 280.674C1258.78 272.489 1268.1 263.049 1279.99 252.274C1279.99 259.652 1279.93 264.754 1280 269.853C1280.23 286.863 1279.31 303.907 1281.32 320.865C1283.47 338.989 1278.27 353.595 1262.22 363.774C1248.12 372.717 1234.18 381.948 1220.56 391.606C1179.68 420.599 1139 449.883 1098.18 478.964C1095.88 480.604 1093.9 483.577 1090.3 482.532C1088.85 458.939 1087.4 435.514 1085.87 410.456ZM1073.88 403.788C1075.82 429.7 1077.39 455.648 1079.95 481.499C1080.67 488.802 1077.85 490.428 1072.05 490.384C1059.35 490.288 1046.65 490.249 1033.97 489.741C1004.28 488.55 974.609 486.772 944.911 485.908C932.788 485.555 932.601 486.349 932.821 474.174C933.243 450.932 932.221 427.737 930.424 404.588C929.653 394.653 930.303 392.733 940.565 393.305C958.468 394.304 976.326 396.127 994.195 397.698C1015.45 399.566 1036.56 403.149 1058.03 402.406C1063.06 402.232 1068.23 398.608 1073.88 403.788ZM866.362 520.156C841.048 534.502 817.433 552.04 788.21 563.116C789.723 534.3 787.154 507.538 786.571 480.707C786.441 474.694 790.093 472.823 794.699 471.114C810.416 465.281 825.289 457.672 839.425 448.722C862.419 434.164 885.195 419.261 908.144 404.63C911.645 402.398 914.821 399.097 920.09 399.39C918.914 427.932 918.13 456.27 922.6 484.423C923.243 488.476 920.33 489.729 917.376 490.947C899.53 498.304 883.727 509.242 866.362 520.156ZM540.452 532.85C539.626 541.683 543.371 550.47 541.235 559.207C538.026 560.237 535.896 558.745 533.818 557.512C491.476 532.38 448.396 508.488 406.94 481.864C402.697 479.14 401.332 475.977 401.404 471.165C401.708 451.031 401.685 430.893 401.878 410.757C401.903 408.136 400.89 405.069 404.618 402.771C421.017 408.256 436.282 416.939 451.256 426.262C480.106 444.225 506.709 466.064 539.387 477.437C543.486 478.863 543.536 481.921 543.257 485.691C542.135 500.808 541.351 515.95 540.452 532.85ZM344.596 393.135C357.962 392.697 371.12 394.46 384.207 396.922C387.676 397.574 391.113 398.548 391.124 402.993C391.181 425.813 391.151 448.634 391.151 472.722C360.256 464.176 330.214 470.65 300.139 471.931C288.723 472.417 277.422 474.692 265.911 473.831C261.061 473.469 258.28 472.04 259.138 466.499C261.803 449.276 259.921 431.912 260.563 414.623C260.799 408.279 261.14 401.939 261.474 394.712C273.188 396.381 283.954 397.066 294.729 396.403C310.767 395.417 326.793 394.238 344.596 393.135ZM249.158 416.838C251.816 437.199 250.582 460.151 246.388 465.519C245.391 464.875 244.184 464.396 243.387 463.537C212.214 429.962 183.473 394.314 154.343 358.999C151.24 355.236 150.644 350.669 150.73 345.874C151.154 322.201 148.914 298.622 147.855 273.876C152.499 280.854 156.53 287.002 160.651 293.089C181.302 323.584 200.622 355.653 230.136 378.294C243.641 388.655 250.715 398.681 249.158 416.838Z" fill="black"/>
</svg>
