<svg width="886" height="381" viewBox="0 0 886 381" fill="none" xmlns="http://www.w3.org/2000/svg">
<path d="M840.003 142.238C840.003 151.826 839.142 160.555 837.421 168.422C835.823 176.167 833.241 183.297 829.676 189.813C826.111 196.328 821.501 202.352 815.846 207.884C810.191 213.416 803.368 218.702 795.378 223.743L839.265 301.929L756.285 318.156L727.887 239.601L705.021 240.339L701.702 317.05H622.409C623.024 289.021 623.577 261.115 624.069 233.332C624.684 205.549 625.36 177.643 626.097 149.614C626.343 135.476 626.589 121.462 626.835 107.57C627.081 93.6786 627.573 79.6641 628.31 65.5267C636.916 62.3304 645.398 59.6873 653.758 57.5975C662.117 55.5076 670.477 53.9094 678.836 52.803C687.319 51.5737 695.863 50.7746 704.468 50.4058C713.196 49.9141 722.109 49.6682 731.206 49.6682C745.221 49.6682 758.743 51.6352 771.774 55.569C784.928 59.38 796.545 65.1579 806.626 72.9027C816.707 80.6476 824.759 90.2979 830.783 101.854C836.929 113.409 840.003 126.871 840.003 142.238ZM757.391 148.138C757.391 142.975 756.653 138.242 755.178 133.939C753.826 129.637 751.736 125.949 748.909 122.875C746.204 119.679 742.762 117.22 738.582 115.499C734.525 113.655 729.731 112.733 724.199 112.733C721.74 112.733 719.343 112.918 717.007 113.287C714.671 113.532 712.397 113.963 710.184 114.577L707.234 183.175H711.66C716.946 183.175 722.293 182.498 727.702 181.146C733.234 179.794 738.152 177.704 742.455 174.876C746.88 172.049 750.445 168.422 753.15 163.997C755.977 159.571 757.391 154.285 757.391 148.138Z" fill="white"/>
<path d="M615.491 171.004C615.491 181.699 614.753 192.394 613.278 203.09C592.256 204.442 571.357 206.655 550.582 209.728C529.806 212.679 509.03 215.629 488.254 218.579C491.45 227.431 496.429 234.499 503.191 239.786C510.075 245.072 518.25 247.715 527.716 247.715C532.633 247.715 537.981 246.793 543.759 244.949C549.66 243.105 555.499 240.83 561.277 238.126C567.055 235.298 572.587 232.287 577.873 229.09C583.159 225.894 587.708 223.005 591.519 220.423L582.667 304.141C577.873 307.829 572.648 310.964 566.993 313.546C561.461 316.128 555.683 318.217 549.66 319.816C543.636 321.414 537.551 322.582 531.404 323.319C525.257 324.057 519.233 324.426 513.333 324.426C501.162 324.426 490.037 322.766 479.956 319.447C469.875 316.128 460.717 311.518 452.48 305.617C444.367 299.593 437.236 292.524 431.09 284.411C424.943 276.297 419.841 267.446 415.784 257.857C411.728 248.268 408.654 238.126 406.564 227.431C404.475 216.735 403.43 205.917 403.43 194.976C403.43 183.543 404.475 172.11 406.564 160.677C408.654 149.245 411.789 138.242 415.969 127.67C420.272 117.097 425.619 107.324 432.012 98.3499C438.527 89.2528 446.088 81.3236 454.693 74.5622C463.298 67.8008 473.01 62.5147 483.828 58.7037C494.77 54.8928 506.817 52.9873 519.971 52.9873C530.912 52.9873 540.87 54.524 549.844 57.5973C558.941 60.5477 566.993 64.7275 574.001 70.1366C581.131 75.4228 587.277 81.7539 592.441 89.1299C597.727 96.5059 602.029 104.62 605.349 113.471C608.791 122.199 611.311 131.481 612.909 141.315C614.63 151.027 615.491 160.923 615.491 171.004ZM541.73 161.415C541.73 157.973 541.362 154.469 540.624 150.904C539.886 147.216 538.657 143.897 536.936 140.947C535.338 137.996 533.186 135.599 530.482 133.755C527.777 131.788 524.397 130.805 520.34 130.805C515.422 130.805 511.058 132.157 507.247 134.861C503.559 137.443 500.363 140.762 497.659 144.819C494.954 148.753 492.741 153.056 491.02 157.727C489.299 162.399 488.008 166.701 487.148 170.635L541.73 165.472V161.415Z" fill="white"/>
<path d="M407.206 254.353C407.206 264.557 405.301 273.346 401.49 280.723C397.802 288.099 392.823 294.368 386.553 299.531C380.284 304.695 373.03 308.936 364.794 312.255C356.68 315.451 348.198 317.972 339.347 319.816C330.495 321.66 321.583 322.889 312.608 323.504C303.757 324.118 295.459 324.426 287.714 324.426C280.092 324.426 272.163 324.118 263.927 323.504C255.813 323.012 247.699 322.09 239.586 320.738C231.472 319.385 223.481 317.603 215.613 315.39C207.746 313.054 200.308 310.165 193.301 306.723L192.932 69.2146C199.816 66.3871 207.131 63.867 214.876 61.6542C222.621 59.3184 230.489 57.4129 238.479 55.9377C246.593 54.3396 254.645 53.1717 262.636 52.4341C270.626 51.5736 278.371 51.1433 285.87 51.1433C294.599 51.1433 303.388 51.6965 312.24 52.8029C321.214 53.9093 329.819 55.7533 338.056 58.3349C346.292 60.9166 353.976 64.2972 361.106 68.477C368.236 72.5338 374.444 77.5741 379.73 83.5979C385.14 89.6217 389.319 96.6289 392.27 104.62C395.343 112.61 396.88 121.83 396.88 132.28C396.88 139.164 395.896 145.618 393.929 151.642C391.962 157.666 389.135 163.075 385.447 167.869C381.759 172.664 377.272 176.782 371.986 180.224C366.699 183.543 360.737 186.002 354.099 187.6C362.089 189.69 369.342 192.763 375.858 196.82C382.496 200.877 388.09 205.794 392.638 211.572C397.31 217.35 400.875 223.866 403.334 231.119C405.915 238.372 407.206 246.117 407.206 254.353ZM313.53 149.245C313.53 145.68 312.793 142.668 311.318 140.209C309.842 137.627 307.998 135.538 305.786 133.939C303.696 132.341 301.36 131.173 298.778 130.436C296.32 129.698 294.107 129.329 292.14 129.329C289.681 129.329 287.284 129.698 284.948 130.436C282.613 131.173 280.338 132.034 278.125 133.017L277.019 173.954C279.847 173.954 283.35 173.709 287.53 173.217C291.71 172.725 295.705 171.68 299.516 170.082C303.45 168.361 306.769 165.902 309.474 162.706C312.178 159.387 313.53 154.9 313.53 149.245ZM287.345 209.359C283.78 209.359 280.338 209.728 277.019 210.466L276.281 252.509C278.125 252.878 279.908 253.247 281.629 253.616C283.473 253.861 285.256 253.984 286.977 253.984C289.558 253.984 292.386 253.739 295.459 253.247C298.532 252.632 301.421 251.526 304.126 249.928C306.831 248.207 309.043 245.932 310.764 243.105C312.608 240.277 313.53 236.528 313.53 231.856C313.53 227.185 312.608 223.374 310.764 220.423C309.043 217.473 306.892 215.199 304.31 213.601C301.729 211.88 298.901 210.773 295.828 210.281C292.755 209.667 289.927 209.359 287.345 209.359Z" fill="white"/>
<path d="M76.1105 345.447L77.9545 272.793C74.0206 272.056 70.0253 271.195 65.9684 270.212C61.9116 269.105 57.9163 267.999 53.9824 266.892C50.1714 265.663 46.4834 264.434 42.9183 263.204C39.3532 261.975 36.1569 260.746 33.3295 259.516L39.5991 214.154C47.3439 218.088 56.0108 221.038 65.5996 223.005C75.1885 224.972 84.7159 225.955 94.1818 225.955C95.9029 225.955 97.9928 225.894 100.451 225.771C103.033 225.648 105.492 225.341 107.827 224.849C110.163 224.234 112.13 223.312 113.728 222.083C115.449 220.854 116.31 219.194 116.31 217.104C116.31 214.891 115.081 213.232 112.622 212.125C110.286 210.896 107.459 210.035 104.139 209.544C100.943 208.929 97.6854 208.56 94.3662 208.437C91.047 208.314 88.5268 208.253 86.8058 208.253C78.815 208.253 71.5619 207.208 65.0464 205.118C58.5309 203.028 52.876 200.078 48.0815 196.267C43.4101 192.333 39.7835 187.661 37.2019 182.252C34.6203 176.843 33.3295 170.758 33.3295 163.997C33.3295 157.727 34.3744 151.888 36.4643 146.479C38.6771 141.069 41.689 136.152 45.4999 131.727C49.4338 127.301 54.0438 123.428 59.33 120.109C64.7391 116.667 70.5785 113.84 76.8481 111.627L73.8977 33.8096L93.813 35.6536V107.201C95.5341 106.832 97.1937 106.586 98.7918 106.464C100.39 106.218 102.05 105.972 103.771 105.726L103.402 33.8096L123.317 34.1784L120.736 105.726C128.849 105.972 137.024 106.771 145.261 108.123C153.497 109.353 161.058 111.381 167.942 114.208L163.148 161.046C156.632 159.325 149.932 157.85 143.048 156.621C136.164 155.391 129.587 154.777 123.317 154.777C121.35 154.777 118.707 154.838 115.388 154.961C112.192 155.084 108.995 155.453 105.799 156.067C102.726 156.682 100.021 157.604 97.6854 158.833C95.4726 160.063 94.4277 161.784 94.5506 163.997C94.6735 165.841 95.4726 167.254 96.9478 168.238C98.423 169.098 100.267 169.775 102.48 170.266C104.816 170.635 107.397 170.82 110.225 170.82C113.052 170.82 115.757 170.758 118.338 170.635C121.043 170.512 123.563 170.389 125.899 170.266C128.235 170.143 130.079 170.143 131.431 170.266C138.807 170.635 145.445 171.926 151.346 174.139C157.247 176.352 162.287 179.363 166.467 183.174C170.647 186.862 173.843 191.288 176.056 196.451C178.269 201.614 179.375 207.269 179.375 213.416C179.375 222.022 177.9 229.643 174.949 236.282C172.122 242.92 168.127 248.698 162.963 253.616C157.8 258.41 151.592 262.405 144.339 265.602C137.209 268.675 129.341 270.949 120.736 272.424L123.686 345.078L105.615 346.922L104.877 274.268C103.156 274.514 101.435 274.637 99.7138 274.637C97.9927 274.637 96.2717 274.637 94.5506 274.637H93.813L94.1818 346.554L76.1105 345.447Z" fill="white"/>
<path fill-rule="evenodd" clip-rule="evenodd" d="M623.045 287.05C623.412 269.093 623.753 251.187 624.069 233.332C624.684 205.549 625.36 177.643 626.097 149.614C626.343 135.476 626.589 121.462 626.835 107.57C627.081 93.6786 627.573 79.6641 628.31 65.5267C636.916 62.3304 645.398 59.6873 653.758 57.5975C662.117 55.5076 670.477 53.9094 678.836 52.803C687.319 51.5737 695.863 50.7746 704.468 50.4058C713.196 49.9141 722.109 49.6682 731.206 49.6682C745.221 49.6682 758.743 51.6352 771.774 55.569C784.928 59.38 796.545 65.1579 806.626 72.9027C816.707 80.6476 824.759 90.2979 830.783 101.854C836.929 113.409 840.003 126.871 840.003 142.238C840.003 151.826 839.142 160.555 837.421 168.422C835.823 176.167 833.241 183.297 829.676 189.813C826.111 196.328 821.501 202.352 815.846 207.884C810.191 213.416 803.368 218.702 795.378 223.743L839.265 301.929L756.285 318.156L727.887 239.601L705.021 240.339L701.702 317.05H622.409C622.629 307.034 622.841 297.034 623.045 287.05ZM740.143 116.193C743.626 117.858 746.548 120.086 748.909 122.875C751.736 125.949 753.826 129.637 755.178 133.939C756.653 138.242 757.391 142.975 757.391 148.138C757.391 154.285 755.977 159.571 753.15 163.997C750.445 168.422 746.88 172.049 742.455 174.876C740.884 175.908 739.232 176.842 737.498 177.677C734.481 179.131 731.216 180.287 727.702 181.146C722.293 182.498 716.946 183.175 711.66 183.175H707.234L710.184 114.577C712.397 113.963 714.671 113.532 717.007 113.287C719.343 112.918 721.74 112.733 724.199 112.733C729.731 112.733 734.525 113.655 738.582 115.499C738.845 115.607 739.104 115.718 739.361 115.832C739.624 115.949 739.885 116.069 740.143 116.193ZM730.902 336.185L730.432 347.05H591.744L592.417 316.392C593.03 288.405 593.583 260.541 594.074 232.801L594.075 232.734L594.076 232.668C594.284 223.296 594.498 213.91 594.719 204.51C600.895 203.962 607.081 203.488 613.278 203.09C614.753 192.394 615.491 181.699 615.491 171.004C615.491 163.708 615.04 156.508 614.138 149.406C614.134 149.37 614.129 149.334 614.125 149.298C613.783 146.624 613.378 143.963 612.909 141.315C611.311 131.481 608.791 122.199 605.349 113.471C604.541 111.318 603.676 109.209 602.752 107.144C601.057 103.353 599.166 99.7094 597.079 96.2126C597.363 85.5278 597.787 74.7781 598.351 63.9636L599.379 44.2702L617.865 37.4039C627.441 33.8471 636.981 30.8683 646.482 28.4932C655.857 26.1494 665.27 24.3442 674.716 23.0868C684.077 21.7363 693.499 20.8552 702.98 20.4421C712.228 19.925 721.637 19.6682 731.206 19.6682C748.013 19.6682 764.409 22.0256 780.284 26.8009C796.689 31.5736 811.676 38.951 824.903 49.1132C838.506 59.5642 849.345 72.5977 857.331 87.8826C866.112 104.443 870.003 122.859 870.003 142.238C870.003 153.525 868.998 164.386 866.765 174.663C864.601 185.07 861.049 194.975 855.994 204.213C850.917 213.492 844.46 221.86 836.825 229.329C835.99 230.146 835.141 230.954 834.277 231.753L885.727 323.411L736.812 352.532L730.902 336.185Z" fill="black"/>
<path fill-rule="evenodd" clip-rule="evenodd" d="M551.162 209.643C555.757 208.966 560.357 208.332 564.964 207.741C570.502 207.029 576.049 206.378 581.604 205.788C592.131 204.67 602.689 203.771 613.278 203.09C614.753 192.394 615.491 181.699 615.491 171.004C615.491 169.99 615.482 168.977 615.465 167.966C615.309 158.934 614.457 150.05 612.909 141.315C611.311 131.481 608.791 122.199 605.349 113.471C602.029 104.62 597.727 96.5059 592.441 89.1299C587.277 81.7539 581.131 75.4228 574.001 70.1366C566.993 64.7275 558.941 60.5477 549.844 57.5973C540.87 54.524 530.912 52.9873 519.971 52.9873C506.817 52.9873 494.77 54.8928 483.828 58.7037C473.01 62.5147 463.298 67.8008 454.693 74.5622C446.088 81.3236 438.527 89.2528 432.012 98.3499C425.619 107.324 420.272 117.097 415.969 127.67C411.789 138.242 408.654 149.245 406.564 160.677C404.475 172.11 403.43 183.543 403.43 194.976C403.43 205.917 404.475 216.735 406.564 227.431C408.654 238.126 411.728 248.268 415.784 257.857C419.841 267.446 424.943 276.297 431.09 284.411C437.236 292.524 444.367 299.593 452.48 305.617C460.717 311.518 469.875 316.128 479.956 319.447C490.037 322.766 501.162 324.426 513.333 324.426C519.233 324.426 525.257 324.057 531.404 323.319C537.551 322.582 543.636 321.414 549.66 319.816C555.683 318.217 561.461 316.128 566.993 313.546C572.648 310.964 577.873 307.829 582.667 304.141L591.519 220.423C587.708 223.005 583.159 225.894 577.873 229.09C572.587 232.287 567.055 235.298 561.277 238.126C560.89 238.307 560.504 238.486 560.117 238.663C559.874 238.774 559.631 238.884 559.388 238.994C554.227 241.32 549.017 243.305 543.759 244.949C537.981 246.793 532.633 247.715 527.716 247.715C522.519 247.715 517.711 246.918 513.292 245.325C509.662 244.016 506.295 242.169 503.191 239.786C496.429 234.499 491.45 227.431 488.254 218.579L550.582 209.728C550.775 209.7 550.968 209.671 551.162 209.643ZM487.148 170.635C488.008 166.701 489.299 162.399 491.02 157.727C492.741 153.056 494.954 148.753 497.659 144.819C499.07 142.701 500.617 140.784 502.297 139.068C503.835 137.497 505.485 136.095 507.247 134.861C511.058 132.157 515.422 130.805 520.34 130.805C524.397 130.805 527.777 131.788 530.482 133.755C531.523 134.465 532.482 135.256 533.359 136.13C534.76 137.526 535.953 139.132 536.936 140.947C538.337 143.348 539.412 145.994 540.161 148.884C540.333 149.545 540.487 150.218 540.624 150.904C541.362 154.469 541.73 157.973 541.73 161.415V165.472L487.148 170.635ZM559.329 29.1356C571.258 33.0304 582.274 38.6699 592.098 46.209C601.716 53.3775 610.008 61.9432 616.921 71.7885C620.819 77.2415 624.279 82.9703 627.309 88.9558C627.131 94.3146 626.99 99.6554 626.884 104.978C626.881 105.118 626.878 105.258 626.875 105.398C626.861 106.123 626.848 106.847 626.835 107.57C626.651 117.96 626.467 128.418 626.283 138.945C626.282 139.011 626.281 139.077 626.28 139.143C626.219 142.625 626.158 146.116 626.097 149.614C625.998 153.399 625.899 157.183 625.802 160.964C625.716 164.312 625.63 167.659 625.546 171.004C625.404 176.633 625.264 182.258 625.127 187.877C624.99 193.479 624.856 199.076 624.724 204.668C624.505 213.945 624.294 223.207 624.089 232.456L620.388 232.694L611.149 320.081L600.959 327.92C594.343 333.009 587.191 337.294 579.564 340.785C572.427 344.108 565.014 346.78 557.353 348.812C549.985 350.767 542.524 352.2 534.978 353.105C527.703 353.978 520.485 354.426 513.333 354.426C498.434 354.426 484.089 352.392 470.573 347.942C457.742 343.717 445.833 337.759 435.009 330.004L434.802 329.856L434.597 329.704C424.184 321.973 415.028 312.889 407.177 302.526C403.601 297.806 400.316 292.896 397.322 287.802C398.858 285.568 400.247 283.208 401.49 280.723C404.362 275.163 406.152 268.799 406.86 261.633C407.091 259.292 407.206 256.865 407.206 254.353C407.206 246.117 405.915 238.372 403.334 231.119C403.007 230.154 402.66 229.203 402.294 228.265C399.908 222.146 396.689 216.582 392.638 211.572C388.09 205.794 382.496 200.877 375.858 196.82C375.06 196.323 374.25 195.841 373.43 195.373C373.43 195.241 373.43 195.108 373.43 194.976C373.43 189.589 373.63 184.207 374.029 178.832C378.438 175.688 382.244 172.033 385.447 167.869C387.805 164.803 389.812 161.486 391.466 157.918C392.399 155.906 393.22 153.814 393.929 151.642C395.896 145.618 396.88 139.164 396.88 132.28C396.88 127.906 396.61 123.747 396.072 119.803C396.061 119.722 396.049 119.64 396.038 119.558C395.361 114.712 394.275 110.192 392.781 106C397.024 97.2008 401.953 88.8399 407.577 80.9445L407.6 80.913L407.622 80.8816C415.752 69.5298 425.272 59.5266 436.158 50.9727C447.465 42.0889 460.099 35.2561 473.861 30.4081L473.911 30.3905L473.961 30.3731C488.472 25.3186 503.906 22.9873 519.971 22.9873C533.635 22.9873 546.857 24.8965 559.329 29.1356Z" fill="black"/>
<path fill-rule="evenodd" clip-rule="evenodd" d="M387.538 205.88C389.364 207.675 391.064 209.572 392.638 211.572C397.31 217.35 400.875 223.866 403.334 231.119C405.915 238.372 407.206 246.117 407.206 254.353C407.206 264.557 405.301 273.346 401.49 280.723C397.802 288.099 392.823 294.368 386.553 299.531C380.284 304.695 373.03 308.936 364.794 312.255C356.68 315.451 348.198 317.972 339.347 319.816C330.495 321.66 321.583 322.889 312.608 323.504C303.757 324.118 295.459 324.426 287.714 324.426C280.092 324.426 272.163 324.118 263.927 323.504C255.813 323.012 247.699 322.09 239.586 320.738C231.472 319.385 223.481 317.603 215.613 315.39C207.746 313.054 200.308 310.165 193.301 306.723L192.932 69.2146C199.816 66.3871 207.131 63.867 214.876 61.6542C222.621 59.3184 230.489 57.4129 238.479 55.9377C246.593 54.3396 254.645 53.1717 262.636 52.4341C270.626 51.5736 278.371 51.1433 285.87 51.1433C294.599 51.1433 303.388 51.6965 312.24 52.8029C321.214 53.9093 329.819 55.7533 338.056 58.3349C346.292 60.9166 353.976 64.2972 361.106 68.477C368.236 72.5338 374.444 77.5741 379.73 83.5979C385.14 89.6217 389.319 96.6289 392.27 104.62C395.343 112.61 396.88 121.83 396.88 132.28C396.88 139.164 395.896 145.618 393.929 151.642C391.974 157.63 389.168 163.011 385.512 167.785C385.49 167.813 385.469 167.841 385.447 167.869C381.759 172.664 377.272 176.782 371.986 180.224C366.699 183.543 360.737 186.002 354.099 187.6C362.089 189.69 369.342 192.763 375.858 196.82C380.198 199.472 384.092 202.492 387.538 205.88ZM404.004 180.294C403.958 180.877 403.915 181.461 403.875 182.045C403.626 185.662 403.481 189.279 403.441 192.896C403.433 193.589 403.43 194.283 403.43 194.976C403.43 197.56 403.488 200.136 403.604 202.706C403.608 202.781 403.611 202.856 403.615 202.931C403.999 211.168 404.982 219.335 406.564 227.431C406.719 228.223 406.879 229.012 407.045 229.798C407.049 229.817 407.053 229.837 407.057 229.856C408.856 238.379 411.288 246.544 414.356 254.353C414.818 255.529 415.294 256.697 415.784 257.857C419.841 267.446 424.943 276.297 431.09 284.411C431.399 284.818 431.71 285.224 432.024 285.626C430.95 288.576 429.692 291.474 428.237 294.31C422.708 305.309 415.136 314.856 405.624 322.689C396.779 329.974 386.822 335.722 376.007 340.081L375.899 340.124L375.79 340.167C366.038 344.009 355.92 347.007 345.465 349.185C335.285 351.306 325.018 352.723 314.675 353.432C305.234 354.088 296.24 354.426 287.714 354.426C279.353 354.426 270.746 354.091 261.899 353.436C252.8 352.877 243.717 351.84 234.654 350.329C225.471 348.799 216.415 346.779 207.491 344.269L207.283 344.211L207.076 344.149C197.678 341.359 188.665 337.87 180.074 333.65L163.33 325.425L163.218 253.371C168.258 248.507 172.169 242.811 174.949 236.282C177.9 229.643 179.375 222.022 179.375 213.416C179.375 207.269 178.269 201.614 176.056 196.451C173.843 191.288 170.647 186.862 166.467 183.174C165.402 182.203 164.281 181.284 163.105 180.417L163.075 161.027C163.099 161.033 163.123 161.04 163.148 161.046L167.942 114.208C166.332 113.547 164.684 112.929 162.999 112.355L162.901 49.1171L181.535 41.464C189.466 38.2067 197.77 35.349 206.424 32.8687C215.105 30.2588 223.918 28.1256 232.857 26.4688C241.81 24.7112 250.742 23.4125 259.65 22.5823C268.554 21.6309 277.298 21.1433 285.87 21.1433C295.862 21.1433 305.886 21.7762 315.936 23.0316C326.615 24.3496 336.991 26.5622 347.028 29.7082C357.271 32.9187 366.991 37.1693 376.114 42.5006C385.958 48.1255 394.693 55.195 402.167 63.682C410.138 72.5925 416.171 82.8096 420.343 94.0413C422.272 99.0895 423.732 104.293 424.778 109.614C421.47 115.349 418.534 121.367 415.969 127.67C415.365 129.197 414.783 130.734 414.222 132.28C411.429 139.984 409.178 147.912 407.47 156.063C407.149 157.593 406.847 159.132 406.564 160.677C405.369 167.216 404.516 173.755 404.004 180.294ZM299.516 170.082C295.705 171.68 291.71 172.725 287.53 173.217C283.35 173.709 279.847 173.954 277.019 173.954L278.125 133.017C280.338 132.034 282.613 131.173 284.948 130.436C287.284 129.698 289.681 129.329 292.14 129.329C294.107 129.329 296.32 129.698 298.778 130.436C301.262 131.145 303.517 132.253 305.545 133.758C305.626 133.818 305.706 133.878 305.786 133.939C306.592 134.522 307.35 135.17 308.059 135.884C309.294 137.127 310.38 138.569 311.318 140.209C312.793 142.668 313.53 145.68 313.53 149.245C313.53 154.9 312.178 159.387 309.474 162.706C308.78 163.526 308.046 164.297 307.271 165.02C305.026 167.115 302.441 168.802 299.516 170.082ZM295.828 210.281C292.755 209.667 289.927 209.359 287.345 209.359C283.78 209.359 280.338 209.728 277.019 210.466L276.281 252.509C278.125 252.878 279.908 253.247 281.629 253.616C283.473 253.861 285.256 253.984 286.977 253.984C289.558 253.984 292.386 253.739 295.459 253.247C296.003 253.138 296.542 253.014 297.075 252.874C299.55 252.225 301.9 251.243 304.126 249.928C304.912 249.427 305.657 248.88 306.36 248.286C308.076 246.837 309.544 245.11 310.764 243.105C312.608 240.277 313.53 236.528 313.53 231.856C313.53 227.185 312.608 223.374 310.764 220.423C309.664 218.536 308.387 216.926 306.934 215.592C306.115 214.84 305.241 214.176 304.31 213.601C302.453 212.362 300.468 211.442 298.356 210.84C297.532 210.605 296.69 210.419 295.828 210.281Z" fill="black"/>
<path fill-rule="evenodd" clip-rule="evenodd" d="M45.3857 373.622L47.351 296.191C46.8531 296.051 46.3561 295.912 45.86 295.772L45.313 295.618L44.7722 295.444C40.7824 294.157 36.9041 292.864 33.1385 291.566C28.9911 290.136 25.0478 288.629 21.3676 287.029L0.495972 277.954L11.5478 197.991C11.0554 197.065 10.5818 196.126 10.1274 195.174C5.38631 185.241 3.32942 174.654 3.32942 163.997C3.32942 154.331 4.95326 144.795 8.4803 135.667L8.58638 135.392L8.69783 135.12C12.1339 126.72 16.8449 119.028 22.7668 112.151L22.9208 111.972L23.0776 111.796C28.9771 105.159 35.7693 99.4892 43.2985 94.7519C44.2314 94.1593 45.1722 93.581 46.1209 93.0168L42.624 0.785645L73.2466 3.62107L73.2447 3.24607L154.399 4.74892L151.728 78.7709C161.344 80.346 170.588 82.8635 179.34 86.4579L192.968 92.0551L193.078 163.257L192.684 167.103C192.819 167.258 192.952 167.414 193.085 167.57L193.235 264.444C190.391 268.329 187.194 271.967 183.653 275.34L183.516 275.471L183.377 275.599C175.48 282.932 166.369 288.677 156.437 293.054L156.325 293.103L156.214 293.151C154.717 293.797 153.204 294.412 151.677 294.998L154.806 372.059L124.329 375.169L124.346 378.457L104.196 377.223L75.95 380.105L75.9031 375.491L45.3857 373.622ZM134.826 269.094C138.131 268.075 141.302 266.911 144.339 265.602C151.592 262.405 157.8 258.41 162.963 253.616C168.127 248.698 172.122 242.92 174.949 236.282C177.9 229.643 179.375 222.022 179.375 213.416C179.375 207.269 178.269 201.614 176.056 196.451C175.898 196.082 175.735 195.717 175.566 195.356C173.381 190.659 170.348 186.599 166.467 183.174C164.164 181.075 161.6 179.218 158.774 177.603C156.472 176.287 153.996 175.132 151.346 174.139C147.954 172.867 144.318 171.899 140.438 171.237C137.569 170.747 134.567 170.423 131.431 170.266C130.079 170.143 128.235 170.143 125.899 170.266C125.151 170.306 124.385 170.345 123.6 170.384C123.506 170.389 123.412 170.394 123.317 170.399C121.733 170.477 120.074 170.556 118.338 170.635C117.568 170.672 116.787 170.703 115.994 170.729C115.987 170.729 115.979 170.729 115.972 170.73C114.116 170.79 112.2 170.82 110.225 170.82C109.724 170.82 109.231 170.814 108.746 170.802C108.708 170.801 108.67 170.8 108.632 170.799C107.062 170.759 105.572 170.658 104.164 170.496C104.042 170.481 103.921 170.467 103.8 170.452C103.352 170.396 102.912 170.334 102.48 170.266C100.267 169.775 98.423 169.098 96.9478 168.238C95.4726 167.254 94.6735 165.841 94.5506 163.997C94.4277 161.784 95.4726 160.063 97.6854 158.833C99.4948 157.881 101.525 157.113 103.777 156.53C104.076 156.453 104.378 156.379 104.684 156.308C104.769 156.288 104.854 156.269 104.94 156.249C105.167 156.199 105.396 156.15 105.627 156.102C105.684 156.091 105.742 156.079 105.799 156.067C107.274 155.784 108.749 155.553 110.225 155.374C111.946 155.165 113.667 155.027 115.388 154.961C116.158 154.933 116.891 154.907 117.588 154.886C117.6 154.885 117.611 154.885 117.622 154.884C119.679 154.82 121.419 154.784 122.84 154.778C123.003 154.777 123.162 154.777 123.317 154.777C123.904 154.777 124.493 154.782 125.084 154.793C127.41 154.835 129.777 154.96 132.186 155.169C132.39 155.186 132.594 155.205 132.798 155.223C133.058 155.247 133.319 155.272 133.579 155.298C136.668 155.604 139.824 156.045 143.048 156.621C147.733 157.457 152.332 158.408 156.846 159.472C158.965 159.972 161.066 160.496 163.148 161.046L167.942 114.208C161.058 111.381 153.497 109.353 145.261 108.123C141.419 107.492 137.591 106.982 133.775 106.592C130.444 106.252 127.124 106.003 123.813 105.846C123.478 105.83 123.143 105.815 122.809 105.801C122.117 105.772 121.426 105.747 120.736 105.726L123.317 34.1784L103.402 33.8096L103.771 105.726C102.05 105.972 100.39 106.218 98.7918 106.464C97.1937 106.586 95.5341 106.832 93.813 107.201V35.6536L73.8977 33.8096L76.8481 111.627C72.2741 113.241 67.929 115.183 63.8129 117.451C62.2871 118.292 60.7929 119.178 59.33 120.109C54.0438 123.428 49.4338 127.301 45.4999 131.727C41.689 136.152 38.6771 141.069 36.4643 146.479C34.3744 151.888 33.3295 157.727 33.3295 163.997C33.3295 169.239 34.1053 174.074 35.6569 178.503C36.1067 179.787 36.6217 181.037 37.2019 182.252C39.7835 187.661 43.4101 192.333 48.0815 196.267C48.2245 196.38 48.3681 196.493 48.5125 196.605C53.2138 200.253 58.7252 203.091 65.0464 205.118C66.3474 205.535 67.6777 205.911 69.0375 206.245C74.4878 207.584 80.4106 208.253 86.8058 208.253C87.1803 208.253 87.5927 208.256 88.0429 208.262C89.623 208.282 91.6693 208.338 94.1817 208.431C94.2429 208.433 94.3045 208.435 94.3662 208.437C96.1298 208.503 97.876 208.637 99.6049 208.842C99.6184 208.843 99.6319 208.845 99.6454 208.846C101.035 209.011 102.414 209.221 103.782 209.476C103.879 209.494 103.976 209.513 104.073 209.531C104.095 209.535 104.117 209.539 104.139 209.544C104.301 209.568 104.462 209.593 104.621 209.618C104.698 209.631 104.775 209.643 104.852 209.656C107.865 210.162 110.455 210.985 112.622 212.125C115.081 213.232 116.31 214.891 116.31 217.104C116.31 219.194 115.449 220.854 113.728 222.083C112.13 223.312 110.163 224.234 107.827 224.849C107.489 224.92 107.149 224.988 106.805 225.051C106.447 225.117 106.085 225.179 105.721 225.237C104.431 225.442 103.107 225.594 101.747 225.693C101.507 225.711 101.266 225.726 101.025 225.741C100.834 225.752 100.643 225.762 100.451 225.771C97.9928 225.894 95.9029 225.955 94.1818 225.955C94.027 225.955 93.8722 225.955 93.7174 225.955C91.7787 225.948 89.8376 225.9 87.8938 225.811C87.5312 225.795 87.1685 225.777 86.8057 225.757C80.7556 225.432 74.6806 224.708 68.5807 223.585C67.5877 223.402 66.594 223.209 65.5996 223.005C63.6077 222.596 61.6555 222.145 59.7431 221.652C52.4497 219.77 45.7351 217.27 39.5991 214.154L33.3295 259.516C36.1569 260.746 39.3532 261.975 42.9183 263.204C46.4834 264.434 50.1714 265.663 53.9824 266.892C57.2092 267.8 60.4773 268.708 63.7868 269.615C64.512 269.814 65.2393 270.013 65.9684 270.212C70.0253 271.195 74.0206 272.056 77.9545 272.793L76.1105 345.447L94.1818 346.554L93.813 274.637H99.7138C100.273 274.637 100.831 274.624 101.39 274.599C102.552 274.545 103.715 274.435 104.877 274.268L105.615 346.922L123.686 345.078L120.736 272.424C125.675 271.578 130.372 270.468 134.826 269.094Z" fill="black"/>
</svg>
